<?xml version="1.0" encoding="utf-8"?>
<!-- Generator: Adobe Illustrator 19.2.0, SVG Export Plug-In . SVG Version: 6.00 Build 0)  -->
<svg version="1.1" id="Layer_1" xmlns="http://www.w3.org/2000/svg" xmlns:xlink="http://www.w3.org/1999/xlink" x="0px" y="0px"
	 viewBox="0 0 1920 1080" style="enable-background:new 0 0 1920 1080;" xml:space="preserve">
<style type="text/css">
	.st0{fill:#E24B4B;}
	.st1{fill:#E6E6E6;}
	.st2{fill:#C13A3A;}
	.st3{fill:#333333;}
	.st4{fill:#4D4D4D;}
	.st5{fill:#808080;}
	.st6{fill:#666666;}
	.st7{fill:#EA7168;}
	.st8{fill:#E2E4E8;}
	.st9{fill:#8E4D4D;}
	.st10{fill:#405A7F;}
	.st11{fill:#BF844F;}
	.st12{clip-path:url(#SVGID_2_);fill:none;stroke:#4D4D4D;stroke-width:18;stroke-miterlimit:10;}
	.st13{fill:#A06D42;}
	.st14{fill:#603813;}
	.st15{fill:#8C6239;}
	.st16{clip-path:url(#SVGID_4_);fill:#FFFFFF;}
	.st17{fill:#FFFFFF;}
</style>
<path class="st0" d="M626,433.2c0,0-41,46.9-86.2,174.4c-49.4,139.3-49.4,217.9-49.4,217.9h67.8L626,433.2z"/>
<path class="st0" d="M1488.1,858.7H471.5l105-288.5h768c79.3,0,143.5,68,143.5,151.9V858.7z"/>
<path class="st1" d="M603.8,859.5H469.6c-11.7,0-21.2-9.5-21.2-21.2v-14.5c0-11.7,9.5-21.2,21.2-21.2h134.2V859.5z"/>
<rect x="776.6" y="819.8" class="st2" width="396.8" height="38.7"/>
<path class="st1" d="M1331.6,859.5h168c11.7,0,21.2-9.5,21.2-21.2v-14.5c0-11.7-9.5-21.2-21.2-21.2h-168V859.5z"/>
<path class="st3" d="M690.2,752.8c-58.4,0-105.7,47.3-105.7,105.7h211.4C795.9,800.1,748.6,752.8,690.2,752.8z"/>
<path class="st3" d="M1470.8,875.8H495.7c-9.6,0-17.3-7.7-17.3-17.3v0h1009.7v0C1488.1,868,1480.3,875.8,1470.8,875.8z"/>
<circle class="st4" cx="690.2" cy="858.5" r="86.4"/>
<circle class="st5" cx="690.2" cy="858.5" r="47.2"/>
<path class="st6" d="M653,868.5c0-26.1,21.1-47.2,47.2-47.2c10.5,0,20.2,3.4,28,9.2c-8.6-11.7-22.4-19.2-38-19.2
	c-26.1,0-47.2,21.1-47.2,47.2c0,15.6,7.6,29.4,19.2,38C656.4,888.7,653,879,653,868.5z"/>
<rect x="1245.8" y="619.4" class="st2" width="18.7" height="206.1"/>
<path class="st3" d="M1259.8,752.8c-58.4,0-105.7,47.3-105.7,105.7h211.4C1365.5,800.1,1318.1,752.8,1259.8,752.8z"/>
<circle class="st4" cx="1259.8" cy="858.5" r="86.4"/>
<circle class="st5" cx="1259.8" cy="858.5" r="47.2"/>
<path class="st6" d="M1222.5,868.5c0-26.1,21.1-47.2,47.2-47.2c10.5,0,20.2,3.4,28,9.2c-8.6-11.7-22.4-19.2-38-19.2
	c-26.1,0-47.2,21.1-47.2,47.2c0,15.6,7.6,29.4,19.2,38C1226,888.7,1222.5,879,1222.5,868.5z"/>
<path class="st7" d="M1420.2,619.4H570.4l14.1-35.2H1335C1367,584.2,1401.4,597.4,1420.2,619.4z"/>
<path class="st0" d="M1297.8,583.9H576.5v0c0-143.9,116.6-260.5,260.5-260.5h302.8c13.9,0,26.7,7.8,33.1,20.1L1297.8,583.9z"/>
<path class="st8" d="M621.5,550c-7.4,0-12.2-7-9-13c13-24.6,23.7-55.8,84.6-117.6c44.7-45.4,91.4-56.8,116.4-64.4
	c6.5-1.9,13.2,2.5,13.2,8.7v177.2c0,5-4.5,9.1-10,9.1H621.5z"/>
<path class="st2" d="M954.2,675.5h-50c-5.4,0-9.8-4.4-9.8-9.8l0,0c0-5.4,4.4-9.8,9.8-9.8h50c5.4,0,9.8,4.4,9.8,9.8l0,0
	C964,671.2,959.6,675.5,954.2,675.5z"/>
<path class="st9" d="M1214.8,550H882.2c-8,0-14.5-6.5-14.5-14.5V369c0-8,6.5-14.5,14.5-14.5h247.2c5.4,0,10.4,3,12.9,7.9l85.4,166.5
	C1232.6,538.5,1225.6,550,1214.8,550z"/>
<g>
	<path class="st10" d="M1083.7,550h-152l-20.5-48c0-17.5,10.8-31.7,24.2-31.7H1039c13.4,0,16.3,12.7,24.2,31.7L1083.7,550z"/>
	<path class="st10" d="M1180.3,481.3l0.1,2c0.6,9.6-5.7,17.8-14.1,18.4c0,0-76.3-21.9-90-17c-19.6,7-66,22.8-66,22.8
		c-8.4,0.5-15.7-6.8-16.3-16.4l-0.1-2c-0.6-9.6,5.7-17.8,14.1-18.4c0,0,35.2-12.5,58.8-18c21.9-5.1,97.2,12.2,97.2,12.2
		C1172.4,464.3,1179.7,471.7,1180.3,481.3z"/>
	<path class="st10" d="M925.3,479.5l2-0.3c9.5-1.6,18.5,4.9,20.1,14.4L970.2,631c1.6,9.5-4.9,18.5-14.4,20.1l-2,0.3
		c-9.5,1.6-18.5-4.9-20.1-14.4L911,499.6C909.4,490.1,915.8,481.1,925.3,479.5z"/>
	<path class="st10" d="M1072.3,588L1072.3,588c3.6,9.5-1.2,20.2-10.8,23.8l-102.9,38.6c-9.5,3.6-20.2-1.2-23.8-10.8v0
		c-3.6-9.5,1.2-20.2,10.8-23.8l102.9-38.6C1058.1,573.6,1068.7,578.5,1072.3,588z"/>
	<g>
		<path class="st11" d="M1073.4,597.5l1.2,11.3l35.3-3.7c3.1-0.3,5.4-3.1,5.1-6.2l0,0c-0.3-3.1-3.1-5.4-6.2-5.1L1073.4,597.5z"/>
		<path class="st11" d="M1072.3,585.8l1.6,11.3l42.5-5.9c3.1-0.4,5.3-3.3,4.8-6.4l0,0c-0.4-3.1-3.3-5.3-6.4-4.8L1072.3,585.8z"/>
		<path class="st11" d="M1075,575l2.8,11l41.6-10.5c3-0.8,4.9-3.9,4.1-6.9l0,0c-0.8-3-3.9-4.9-6.9-4.1L1075,575z"/>
		<path class="st11" d="M1067.8,568.7l4.8,10.3l39-18c2.8-1.3,4.1-4.7,2.8-7.5l0,0c-1.3-2.8-4.7-4.1-7.5-2.8L1067.8,568.7z"/>
		<path class="st11" d="M1059.7,568.8l8.9,7.1l16.1-20.2c2-2.5,1.6-6-0.9-8l0,0c-2.5-2-6-1.6-8,0.9L1059.7,568.8z"/>
		<path class="st11" d="M1065.6,564.7l8.8-2.2c1.6-0.4,3.2,0.6,3.6,2.2l9.7,38.4c0.4,1.6-0.6,3.2-2.2,3.6l-8.8,2.2
			c-6.1,1.5-12.2-2.2-13.7-8.2l-5.6-22.3C1055.9,572.4,1059.5,566.2,1065.6,564.7z"/>
	</g>
	<g>
		<defs>
			<polygon id="SVGID_1_" points="1179.9,437.9 1241,550 1122.3,550 1109.9,470.3 			"/>
		</defs>
		<clipPath id="SVGID_2_">
			<use xlink:href="#SVGID_1_"  style="overflow:visible;"/>
		</clipPath>
		<circle class="st12" cx="1203.8" cy="525.1" r="53.4"/>
	</g>
	<g>
		<path class="st11" d="M1141.8,490.9L1141.8,490.9c3-1.4,6.5-0.1,7.9,2.8l11.6,24.6c1.4,3,0.1,6.5-2.8,7.9l0,0
			c-3,1.4-6.5,0.1-7.9-2.8l-11.6-24.6C1137.6,495.9,1138.8,492.3,1141.8,490.9z"/>
		<path class="st11" d="M1160.6,458.2l8.8,3.8c3.8,1.6,5.5,6.1,3.9,9.9l-13,29.8c-1.6,3.8-6.1,5.5-9.9,3.9l-8.8-3.8
			c-4-1.8-5.9-6.4-4.1-10.5l12.6-29C1151.9,458.3,1156.6,456.4,1160.6,458.2z"/>
		<path class="st11" d="M1143.3,496L1143.3,496c1.3-3,4.8-4.4,7.8-3.1l25,10.9c3,1.3,4.4,4.8,3.1,7.8l0,0c-1.3,3-4.8,4.4-7.8,3.1
			l-25-10.9C1143.4,502.5,1142,499,1143.3,496z"/>
		<path class="st11" d="M1153,487.3L1153,487.3c1.3-3,4.8-4.4,7.8-3.1l25,10.9c3,1.3,4.4,4.8,3.1,7.8v0c-1.3,3-4.8,4.4-7.8,3.1
			l-25-10.9C1153.1,493.8,1151.7,490.3,1153,487.3z"/>
		<path class="st11" d="M1155,475.2L1155,475.2c1.3-3,4.8-4.4,7.8-3.1l25,10.9c3,1.3,4.4,4.8,3.1,7.8v0c-1.3,3-4.8,4.4-7.8,3.1
			l-25-10.9C1155,481.7,1153.7,478.2,1155,475.2z"/>
		<path class="st11" d="M1155.7,462.6L1155.7,462.6c1.3-3,4.8-4.4,7.8-3.1l25,10.9c3,1.3,4.4,4.8,3.1,7.8l0,0
			c-1.3,3-4.8,4.4-7.8,3.1l-25-10.9C1155.8,469.1,1154.4,465.6,1155.7,462.6z"/>
	</g>
	<path class="st11" d="M1023.7,468.6c4,12.8-3,26.6-15.8,30.6l0,0l-0.2,0.1c-12.8,4-26.7-3.2-30.7-15.9l-6.5-20.5l46.7-14.8
		L1023.7,468.6z"/>
	<path class="st13" d="M975.3,478c10.3,1,20.4,0.2,29.4-2.7c6.3-2,12.4-5.1,18.3-9l-4.7-14.8l-46.7,14.8L975.3,478z"/>
	<g>
		<path class="st14" d="M1082.2,312.8c-3-9.5-11.6-15.6-21-15.9c4.2-7.2,5.4-16,2.7-24.5c-4.8-15.2-20.4-24-35.7-20.6
			c0.3-3.3-0.1-6.8-1.2-10.2c-4.5-14.2-19.6-22.1-33.8-17.6c-7,2.2-12.5,7-15.7,13c0-0.1,0-0.1-0.1-0.2
			c-4.2-13.2-18.2-20.5-31.4-16.3c-8.4,2.6-14.4,9.3-16.6,17.2c-6.9-4.2-15.5-5.5-23.9-2.9c-12.7,4-20.6,15.8-20.3,28.5
			c-4.9-1.1-10.2-1-15.3,0.6c-15.3,4.8-23.8,21.2-19,36.5c0.7,2.1,1.5,4,2.6,5.8c-16.1,5.2-25,22.5-19.9,38.6
			c3.4,10.8,12.3,18.5,22.6,20.8c-5.6,5.8-8,14.4-5.4,22.6c2.9,9,10.8,15,19.7,15.7c-1.3,3.8-1.5,8.1-0.2,12.2
			c3,9.6,12.9,15.2,22.6,13.1c-0.2,2.5,0.1,5,0.9,7.5c3.3,10.5,14.5,16.3,24.9,13c7.2-2.3,12.3-8.4,13.6-15.3
			c17.6,5.5,37,5.8,55.9-0.2c19.2-6.1,35-17.7,46.4-32.6c5.2,5.9,13.6,8.5,21.6,6c10.9-3.4,16.9-15,13.5-25.9
			c-0.6-1.9-1.5-3.7-2.6-5.3c0.6-0.1,1.2-0.3,1.8-0.5c12.3-3.9,19.2-17.1,15.3-29.4c-1.4-4.5-4.1-8.2-7.4-11
			C1082.4,329.6,1084.8,321,1082.2,312.8z"/>
		<path class="st11" d="M1000.6,463.3c-33.2,10.5-82.4-5.9-95.3-46.6l-19.9-63.1c-10.4-32.8,7.8-67.9,40.7-78.2l28-8.8
			c32.8-10.4,67.9,7.8,78.2,40.7l19.9,63.1C1065,411,1033.8,452.8,1000.6,463.3z"/>
		
			<rect x="871.5" y="347.7" transform="matrix(0.9535 -0.3013 0.3013 0.9535 -69.2779 285.0713)" class="st14" width="36.3" height="39"/>
		
			<ellipse transform="matrix(0.9535 -0.3013 0.3013 0.9535 -74.0551 287.2945)" class="st11" cx="894.4" cy="383.7" rx="21.9" ry="21.9"/>
		<path class="st15" d="M891.2,388c-1.3-4.1,1-8.4,5.1-9.7c1.1-0.4,2.3-0.4,3.4-0.3c-2-1.8-4.8-2.5-7.5-1.6
			c-4.1,1.3-6.4,5.7-5.1,9.7c0.9,3,3.5,5,6.4,5.3C892.4,390.5,891.6,389.4,891.2,388z"/>
		
			<ellipse transform="matrix(0.9535 -0.3013 0.3013 0.9535 -67.7063 301.9503)" class="st3" cx="945.1" cy="370.5" rx="5" ry="8.8"/>
		
			<ellipse transform="matrix(0.9535 -0.3013 0.3013 0.9535 -59.1306 319.3011)" class="st3" cx="1005.7" cy="351.4" rx="5" ry="8.8"/>
		<path class="st15" d="M973.5,371.1l4.8,15.1c0.2,0.7,1.2,0.9,1.9,0.7l8.9-2.8c2.4-0.8,2.9-4,0.7-5.4l-14.3-9.2
			C974.6,368.9,973.2,369.9,973.5,371.1z"/>
		
			<ellipse transform="matrix(0.9535 -0.3013 0.3013 0.9535 -52.9617 329.9719)" class="st11" cx="1043.3" cy="336.7" rx="21.9" ry="21.9"/>
		<path class="st15" d="M1051.2,337.4c-1.3-4.1-5.7-6.4-9.7-5.1c-1.1,0.4-2.1,1-2.9,1.7c0.6-2.6,2.5-4.8,5.2-5.6
			c4.1-1.3,8.4,1,9.7,5.1c0.9,3,0,6.1-2.1,8C1051.6,340.2,1051.6,338.8,1051.2,337.4z"/>
		<path class="st14" d="M1028,280.2l-2.6-8.1c-5.1-16-22.2-24.9-38.2-19.9l-92.6,29.3c-16,5.1-24.9,22.2-19.9,38.2l7,22.2
			c-0.1,3,0.7,5.7,2.5,8l5.2,5.1c7,4,16.7,2.3,23.1-4.7c6.1-6.6,7.1-15.8,3.3-22.4l1.5-1.6c3.1,0.6,6.4,0.5,9.7-0.5
			c8.3-2.6,13.7-10.3,13.7-18.6c5.8,7.6,16.6,11.1,27,7.8c7.8-2.5,13.6-8.1,16.2-14.7c3.5,5.6,9.5,10.2,17,12.2
			c13.9,3.7,27.9-2.8,31-14.5C1033.6,291.9,1031.8,285.5,1028,280.2z"/>
	</g>
	<path class="st15" d="M963.5,404.6c4.1,13,18,20.2,31,16.1h0c13-4.1,20.2-18,16.1-31"/>
</g>
<rect x="849" y="619.4" class="st2" width="18.7" height="206.1"/>
<g>
	<defs>
		<path id="SVGID_3_" d="M621.5,550c-7.4,0-12.2-7-9-13c13-24.6,23.7-55.8,84.6-117.6c44.7-45.4,91.4-56.8,116.4-64.4
			c6.5-1.9,13.2,2.5,13.2,8.7v177.2c0,5-4.5,9.1-10,9.1H621.5z"/>
	</defs>
	<clipPath id="SVGID_4_">
		<use xlink:href="#SVGID_3_"  style="overflow:visible;"/>
	</clipPath>
	
		<rect x="571.6" y="448.8" transform="matrix(0.7758 -0.6309 0.6309 0.7758 -135.8041 564.2191)" class="st16" width="309.1" height="48.9"/>
	
		<rect x="592.7" y="494.2" transform="matrix(0.7758 -0.6309 0.6309 0.7758 -145.0157 594)" class="st16" width="341.6" height="13.8"/>
</g>
<path class="st17" d="M1416.8,643.6c-2.9,0-5.7,0.6-8.3,1.7v68.1c2.6,1.1,5.4,1.7,8.3,1.7c15,0,27.2-16,27.2-35.7
	C1444,659.6,1431.8,643.6,1416.8,643.6z"/>
<rect x="1384.8" y="636.6" class="st2" width="19.9" height="85.4"/>
<path class="st9" d="M1408.2,722.1h-3.6v-85.4h3.6c5.4,0,9.7,4.3,9.7,9.7v66C1417.9,717.7,1413.6,722.1,1408.2,722.1z"/>
<path class="st7" d="M1436.3,768.2h-43.8c-4.3,0-7.7-3.5-7.7-7.7l0,0c0-4.3,3.5-7.7,7.7-7.7h43.8c4.3,0,7.7,3.5,7.7,7.7l0,0
	C1444,764.8,1440.5,768.2,1436.3,768.2z"/>
</svg>
